HIERARCHY
ROOT joint_Root
{
	OFFSET 0.0 0.0 0.0
	CHANNELS 6 Xposition Yposition Zposition Zrotation Xrotation Yrotation 
	JOINT Hips
	{
		OFFSET -17.1583 93.1646 452.98
		CHANNELS 6 Xposition Yposition Zposition Zrotation Xrotation Yrotation 
		JOINT Spine
		{
			OFFSET 15.7357 0.0 0.0
			CHANNELS 6 Xposition Yposition Zposition Zrotation Xrotation Yrotation 
			JOINT Chest
			{
				OFFSET 8.98455 -0.406207 0.0
				CHANNELS 6 Xposition Yposition Zposition Zrotation Xrotation Yrotation 
				JOINT Neck
				{
					OFFSET 16.3773 0.0 0.0
					CHANNELS 6 Xposition Yposition Zposition Zrotation Xrotation Yrotation 
					JOINT Head
					{
						OFFSET 6.45672 0.0 0.0
						CHANNELS 6 Xposition Yposition Zposition Zrotation Xrotation Yrotation 
						End Site
						{
							OFFSET 0.0 0.0 0.0
						}
					}
				}
				JOINT Shoulder_L
				{
					OFFSET 12.9942 -0.242716 4.98039
					CHANNELS 6 Xposition Yposition Zposition Zrotation Xrotation Yrotation 
					JOINT UpperArm_L
					{
						OFFSET 5.34809 0.0 0.0
						CHANNELS 6 Xposition Yposition Zposition Zrotation Xrotation Yrotation 
						JOINT LowerArm_L
						{
							OFFSET 24.3286 1.87007e-05 0.0
							CHANNELS 6 Xposition Yposition Zposition Zrotation Xrotation Yrotation 
							JOINT Hand_L
							{
								OFFSET 22.2916 0.0 0.0
								CHANNELS 6 Xposition Yposition Zposition Zrotation Xrotation Yrotation 
								End Site
								{
									OFFSET 0.0 0.0 0.0
								}
							}
						}
					}
				}
				JOINT Shoulder_R
				{
					OFFSET 12.9945 -0.242716 -4.98039
					CHANNELS 6 Xposition Yposition Zposition Zrotation Xrotation Yrotation 
					JOINT UpperArm_R
					{
						OFFSET -5.34813 0.0 0.0
						CHANNELS 6 Xposition Yposition Zposition Zrotation Xrotation Yrotation 
						JOINT LowerArm_R
						{
							OFFSET -24.3289 0.000322201 0.0
							CHANNELS 6 Xposition Yposition Zposition Zrotation Xrotation Yrotation 
							JOINT Hand_R
							{
								OFFSET -22.2915 -0.000108084 0.0
								CHANNELS 6 Xposition Yposition Zposition Zrotation Xrotation Yrotation 
								End Site
								{
									OFFSET 0.0 0.0 0.0
								}
							}
						}
					}
				}
			}
		}
		JOINT UpperLeg_L
		{
			OFFSET -2.19248 -6.46944 0.0
			CHANNELS 6 Xposition Yposition Zposition Zrotation Xrotation Yrotation 
			JOINT LowerLeg_L
			{
				OFFSET 39.0811 0.0 -1.23785e-05
				CHANNELS 6 Xposition Yposition Zposition Zrotation Xrotation Yrotation 
				JOINT Foot_L
				{
					OFFSET 40.9854 0.0 -1.26872e-05
					CHANNELS 6 Xposition Yposition Zposition Zrotation Xrotation Yrotation 
					JOINT Toes_L
					{
						OFFSET 11.7543 0.0 0.0
						CHANNELS 6 Xposition Yposition Zposition Zrotation Xrotation Yrotation 
						End Site
						{
							OFFSET 0.0 0.0 0.0
						}
					}
				}
			}
		}
		JOINT UpperLeg_R
		{
			OFFSET -2.19251 6.46944 0.0
			CHANNELS 6 Xposition Yposition Zposition Zrotation Xrotation Yrotation 
			JOINT LowerLeg_R
			{
				OFFSET -39.0811 -0.00228153 -0.0401928
				CHANNELS 6 Xposition Yposition Zposition Zrotation Xrotation Yrotation 
				JOINT Foot_R
				{
					OFFSET -40.9854 0.0 0.0
					CHANNELS 6 Xposition Yposition Zposition Zrotation Xrotation Yrotation 
					JOINT Toes_R
					{
						OFFSET -11.7543 0.0 0.0
						CHANNELS 6 Xposition Yposition Zposition Zrotation Xrotation Yrotation 
						End Site
						{
							OFFSET 0.0 0.0 0.0
						}
					}
				}
			}
		}
	}
}
MOTION
Frames:	4
Frame Time:	0.0333333
0.000000 0.000000 0.000000 0.000000 0.000000 -0.000000 -1.809410 92.600900 -1.892940 86.275900 3.364230 3.577190 15.735700 0.000005 -0.000001 85.899300 86.068000 -84.316400 8.984550 -0.406207 -0.000000 0.089027 -0.668193 3.164200 16.377300 -0.000001 -0.000001 5.232640 0.604895 -1.477580 6.456720 -0.000001 -0.000000 -8.243680 -1.012890 -0.274255 12.994200 -0.242716 4.980390 -93.708300 10.502300 -70.425800 5.348090 -0.000007 -0.000001 -72.171300 1.848310 -4.752470 24.328600 0.000019 0.000005 9.696680 26.405200 -21.018200 22.291600 -0.000001 0.000005 -3.341900 4.947390 8.418870 12.994500 -0.242716 -4.980390 87.279100 7.444910 -69.858100 -5.348130 -0.000001 -0.000004 -70.368700 21.412800 -3.853050 -24.328900 0.000322 -0.000009 1.716460 6.229800 -15.446500 -22.291500 -0.000108 -0.000004 -4.988460 5.245550 1.550180 -2.192480 -6.469440 -0.000000 -176.321000 2.700570 -3.563500 39.081100 -0.000007 -0.000012 0.272438 -0.614282 23.918100 40.985400 -0.000006 -0.000013 2.068700 5.441850 -72.598000 11.754300 -0.000000 0.000003 -0.000670 0.178234 -9.347080 -2.192510 6.469440 -0.000001 -173.901000 13.662100 -177.388000 -39.081100 -0.002282 -0.040193 0.057565 -0.216002 14.094300 -40.985400 0.000008 0.000006 1.860050 2.820800 -69.209400 -11.754300 -0.000006 -0.000006 -0.009126 0.264651 -5.823050
0.000000 0.000000 0.000000 0.000000 0.000000 -0.000000 -1.869150 92.638400 -2.103800 86.257000 3.369540 3.396200 15.735700 0.000005 -0.000001 85.838800 86.039200 -84.232800 8.984550 -0.406207 -0.000000 0.146398 -0.681407 3.210850 16.377300 -0.000001 -0.000001 4.779760 0.499893 -1.214660 6.456720 -0.000001 -0.000000 -9.037470 -1.000140 -0.072087 12.994200 -0.242716 4.980390 -93.793300 10.810000 -70.530700 5.348090 -0.000007 -0.000001 -71.408500 -2.274070 -5.828770 24.328600 0.000019 0.000005 9.595920 25.472900 -21.459600 22.291600 -0.000001 0.000005 -3.509840 4.895160 9.474170 12.994500 -0.242716 -4.980390 87.257000 7.424830 -69.657300 -5.348130 -0.000001 -0.000004 -69.698700 15.850200 -4.679800 -24.328900 0.000322 -0.000009 1.305570 4.911600 -14.917000 -22.291500 -0.000108 -0.000004 -5.087850 5.211240 2.435650 -2.192480 -6.469440 -0.000000 -176.259000 2.783870 -3.850240 39.081100 -0.000007 -0.000012 0.271918 -0.615681 23.829300 40.985400 -0.000006 -0.000013 1.998590 5.417980 -72.490300 11.754300 -0.000000 0.000003 -0.000675 0.178298 -9.344470 -2.192510 6.469440 -0.000001 -173.778000 13.611000 -177.669000 -39.081100 -0.002282 -0.040193 0.054142 -0.204422 13.958200 -40.985400 0.000008 0.000006 1.757270 2.770290 -69.019500 -11.754300 -0.000006 -0.000006 -0.009085 0.264339 -5.835790
0.000000 0.000000 0.000000 0.000000 0.000000 -0.000000 -1.918010 92.655100 -2.276360 86.227700 3.352830 3.369660 15.735700 0.000005 -0.000001 85.649800 85.974000 -84.006900 8.984550 -0.406207 -0.000000 0.275299 -0.717935 3.285280 16.377300 -0.000001 -0.000001 4.343250 0.432021 -0.917888 6.456720 -0.000001 -0.000000 -9.664710 -0.970889 0.179107 12.994200 -0.242716 4.980390 -93.839000 11.006100 -70.634300 5.348090 -0.000007 -0.000001 -70.489500 -6.461790 -6.747700 24.328600 0.000019 0.000005 10.041000 23.803500 -23.687800 22.291600 -0.000001 0.000005 -3.412750 4.857080 10.223400 12.994500 -0.242716 -4.980390 87.322500 7.244060 -69.651900 -5.348130 -0.000001 -0.000004 -68.729300 10.249800 -5.411420 -24.328900 0.000322 -0.000009 0.336453 1.215760 -15.521000 -22.291500 -0.000108 -0.000004 -4.161310 5.163010 3.629880 -2.192480 -6.469440 -0.000000 -176.181000 2.757010 -4.013590 39.081100 -0.000007 -0.000012 0.267107 -0.604564 23.837200 40.985400 -0.000006 -0.000013 1.949500 5.436540 -72.340000 11.754300 -0.000000 0.000003 -0.000745 0.179336 -9.302300 -2.192510 6.469440 -0.000001 -173.689000 13.590400 -177.817000 -39.081100 -0.002282 -0.040193 0.053579 -0.202375 13.943700 -40.985400 0.000008 0.000006 1.714110 2.817580 -68.892500 -11.754300 -0.000006 -0.000006 -0.009042 0.264004 -5.849500
0.000000 0.000000 0.000000 0.000000 0.000000 -0.000000 -1.985790 92.684100 -2.491550 86.181800 3.289760 3.220030 15.735700 0.000005 -0.000001 85.624800 85.967800 -83.935200 8.984550 -0.406207 -0.000000 0.287838 -0.725251 3.378780 16.377300 -0.000001 -0.000001 4.030930 0.366536 -0.631969 6.456720 -0.000001 -0.000000 -10.242300 -1.044210 0.634856 12.994200 -0.242716 4.980390 -93.830100 11.015300 -70.690600 5.348090 -0.000007 -0.000001 -69.704900 -10.676800 -7.518700 24.328600 0.000019 0.000005 11.033400 21.816200 -27.685100 22.291600 -0.000001 0.000005 -1.839070 4.820310 10.931200 12.994500 -0.242716 -4.980390 87.401300 7.037400 -69.672600 -5.348130 -0.000001 -0.000004 -67.657600 4.308780 -5.539360 -24.328900 0.000322 -0.000009 -0.931964 -2.736360 -18.787600 -22.291500 -0.000108 -0.000004 -0.729504 5.127260 4.480850 -2.192480 -6.469440 -0.000000 -176.082000 2.695660 -4.294530 39.081100 -0.000007 -0.000012 0.266689 -0.604514 23.805800 40.985400 -0.000006 -0.000013 1.897630 5.464360 -72.221200 11.754300 -0.000000 0.000003 -0.000631 0.177647 -9.370930 -2.192510 6.469440 -0.000001 -173.514000 13.429800 -178.048000 -39.081100 -0.002282 -0.040193 0.051989 -0.198659 13.762300 -40.985400 0.000008 0.000006 1.812330 2.690570 -68.679800 -11.754300 -0.000006 -0.000006 -0.008969 0.263437 -5.872690
